<svg xmlns="http://www.w3.org/2000/svg" viewBox="0 0 1000 1000">
  <path fill="#4169E1" d="M500 200c-165.685 0-300 134.315-300 300s134.315 300 300 300 300-134.315 300-300S665.685 200 500 200zm0 550c-137.71 0-250-112.29-250-250s112.29-250 250-250 250 112.29 250 250-112.29 250-250 250z"/>
  <path fill="#4169E1" d="M500 350c-82.843 0-150 67.157-150 150s67.157 150 150 150 150-67.157 150-150-67.157-150-150-150zm0 250c-55.228 0-100-44.772-100-100s44.772-100 100-100 100 44.772 100 100-44.772 100-100 100z"/>
  <circle fill="#4169E1" cx="500" cy="500" r="50"/>
</svg>